# xmcd
#
# Track frame offsets: 
#        150
#        22431
#        47548
#        76531
#        105576
#        128659
#        163054
#        181511
#        215690
#        240173
#        260016
#        276662
#
# Disc length: 3835 seconds
#
# Revision: 0
# Processed by: cddbd v1.5.2PL0 Copyright (c) Steve Scherf et al.
# Submitted via: ExactAudioCopy v1.3
#
DISCID=9e0ef90c
DTITLE=Jeff Strahan - Along For The Ride
DYEAR=2005
DGENRE=Texas Blues
TTITLE0=Everything Was Beautiful
TTITLE1=Who's Your Daddy
TTITLE2=Pass It On
TTITLE3=Mr. Sunshine
TTITLE4=Don't Stop Loving Me
TTITLE5=Along For The Ride
TTITLE6=Beausolie
TTITLE7=Thomas Garcia
TTITLE8=Cowboy Pride
TTITLE9=Down For The Count
TTITLE10=Little Thing
TTITLE11=Busted Metal
EXTD=
EXTT0=
EXTT1=
EXTT2=
EXTT3=
EXTT4=
EXTT5=
EXTT6=
EXTT7=
EXTT8=
EXTT9=
EXTT10=
EXTT11=
PLAYORDER=
